<?xml version="1.0" encoding="UTF-8"?>
<svg width="80" height="80" viewBox="0 0 80 80" xmlns="http://www.w3.org/2000/svg">
    <path id="Path" fill="#4a6da7" stroke="none" d="M 0 0 L 80 0 L 80 80 L 0 80 Z"/>
    <path id="path1" fill="#ffffff" stroke="none" d="M 22.709999 41.07 C 25.309999 41.07 27.219999 40.279999 28.440001 38.68 C 29.744366 36.805584 30.388165 34.550533 30.27 32.27 L 30.27 13.270004 L 26.719999 13.270004 L 26.719999 32.349998 C 26.798836 33.788071 26.417004 35.213814 25.629999 36.419998 C 24.901199 37.420486 23.716093 37.984825 22.48 37.919998 C 21.516138 37.927361 20.562845 37.718933 19.690001 37.310001 C 18.767536 36.874886 17.898439 36.334633 17.1 35.700001 L 15.58 38.5 C 16.522305 39.231407 17.549801 39.84589 18.639999 40.330002 C 19.928905 40.862274 21.316225 41.114513 22.709999 41.07"/>
    <path id="path2" fill="#ffffff" stroke="none" d="M 39.939999 40.799999 L 42.939999 40.799999 L 49.439999 20.209999 L 55.349998 40.799999 L 58.43 40.799999 L 65.139999 13.260002 L 61.48 13.260002 C 61.48 13.260002 57.099998 33.139999 56.810001 34.18 L 51 14.309998 L 48 14.309998 L 41.900002 34.18 L 37.52 13.260002 L 33.700001 13.260002 Z"/>
    <path id="path3" fill="#ffffff" stroke="none" d="M 31.59 53 C 31.234018 51.902866 30.670462 50.884388 29.93 50 C 29.233236 49.173439 28.362494 48.51099 27.379999 48.060001 C 26.36113 47.592171 25.251062 47.356495 24.129999 47.369999 C 22.99609 47.35685 21.873077 47.592377 20.84 48.060001 C 19.84944 48.507023 18.971355 49.169857 18.27 50 C 17.531574 50.887417 16.965216 51.904827 16.6 53 C 16.182775 54.291592 15.980088 55.642838 16 57 C 15.988349 58.33186 16.166815 59.658566 16.530001 60.939999 C 16.853846 62.050613 17.386715 63.089199 18.1 64 C 18.776171 64.8545 19.642494 65.539337 20.629999 66 C 21.720329 66.48912 22.90518 66.731552 24.1 66.709999 C 25.265469 66.727867 26.420225 66.485298 27.48 66 C 28.460653 65.532829 29.322344 64.848946 30 64 C 30.727266 63.084812 31.273659 62.039536 31.610001 60.919998 C 31.998604 59.622818 32.187435 58.274029 32.169998 56.919998 C 32.186501 55.590794 31.990704 54.267475 31.59 53 Z M 29.65 60.209999 C 29.388224 61.119522 28.968494 61.975906 28.41 62.740002 C 27.910116 63.423317 27.264534 63.986919 26.52 64.389999 C 25.784048 64.779305 24.96253 64.978668 24.129999 64.970001 C 23.272697 64.979118 22.42683 64.772812 21.67 64.370003 C 20.920033 63.966385 20.270622 63.39901 19.77 62.709999 C 19.211002 61.947609 18.794313 61.090519 18.540001 60.18 C 18.250162 59.145012 18.105448 58.074795 18.110001 57 C 18.100376 55.945286 18.24181 54.894623 18.530001 53.880001 C 18.783733 52.988373 19.193396 52.148735 19.74 51.400002 C 20.24929 50.724239 20.897083 50.165092 21.639999 49.759998 C 23.182316 48.959496 25.017685 48.959496 26.559999 49.759998 C 27.306541 50.164558 27.952492 50.731903 28.450001 51.419998 C 28.992722 52.174721 29.401987 53.016926 29.66 53.91 C 29.957762 54.912773 30.106024 55.953972 30.1 57 C 30.111221 58.089756 29.959547 59.175072 29.65 60.220001 Z"/>
    <path id="path4" fill="#ffffff" stroke="none" d="M 43.509998 58.279999 L 43.84 58.200001 C 44.428143 58.063755 44.996189 57.851997 45.529999 57.57 C 46.03318 57.315193 46.489624 56.977089 46.880001 56.57 C 47.270885 56.139931 47.57935 55.641644 47.790001 55.099998 C 48.298916 53.671696 48.234398 52.10173 47.610001 50.720001 C 47.283997 50.045242 46.804535 49.456188 46.209999 49 C 45.595367 48.541149 44.89996 48.201927 44.16 48 C 43.3624 47.777828 42.53796 47.666782 41.709999 47.669998 L 35.57 47.669998 L 35.57 66.400002 L 37.57 66.400002 L 37.57 58.57 L 41.349998 58.57 L 46.279999 66.400002 L 48.709999 66.400002 Z M 37.580002 56.84 L 37.580002 49.41 L 41.580002 49.41 C 42.717968 49.362759 43.836384 49.71669 44.740002 50.41 C 45.578606 51.08762 46.04612 52.122826 46 53.200001 C 46.052376 54.253548 45.585403 55.265942 44.75 55.91 C 43.755871 56.582409 42.568184 56.909199 41.369999 56.84 Z"/>
    <path id="path5" fill="#ffffff" stroke="none" d="M 60.900002 66.489998 C 61.452572 66.371559 61.994415 66.207672 62.52 66 C 62.985252 65.80542 63.427872 65.560638 63.84 65.269997 C 64.189819 65.039124 64.523888 64.785233 64.839996 64.510002 L 64.839996 56.509998 L 58.43 56.509998 L 58.43 58.209999 L 62.880001 58.209999 L 62.880001 63.599998 L 62.799999 63.669998 C 62.359715 64.031685 61.871819 64.331146 61.349998 64.559998 C 60.640892 64.868446 59.873066 65.0186 59.099998 65 C 58.219429 65.009804 57.349037 64.81105 56.560001 64.419998 C 55.783997 64.031029 55.101635 63.478313 54.560001 62.799999 C 53.962849 62.061802 53.511501 61.216797 53.23 60.310001 C 52.907185 59.270992 52.748608 58.187943 52.759998 57.099998 C 52.750156 56.025272 52.908745 54.955639 53.23 53.93 C 53.521824 53.028446 53.964802 52.183067 54.540001 51.43 C 55.084213 50.746452 55.765491 50.184399 56.540001 49.779999 C 57.28606 49.398525 58.112068 49.199734 58.950001 49.200001 C 59.871326 49.178741 60.784065 49.381191 61.610001 49.790001 C 62.260136 50.129078 62.873405 50.534573 63.439999 51 L 64.629997 49.419998 C 63.882236 48.81292 63.050205 48.317741 62.16 47.950001 C 61.149982 47.571949 60.078354 47.385433 59 47.400002 C 57.830605 47.385796 56.672676 47.631729 55.610001 48.119999 C 54.597446 48.595543 53.694969 49.276657 52.959999 50.119999 C 52.199711 51.003963 51.609756 52.021126 51.220001 53.119999 C 50.776237 54.365452 50.54961 55.677853 50.549999 57 C 50.534931 58.357601 50.740959 59.708603 51.16 61 C 51.524323 62.103992 52.105721 63.123985 52.869999 64 C 53.602032 64.854965 54.513706 65.537872 55.540001 66 C 57.235779 66.702522 59.10495 66.873398 60.900002 66.489998 Z"/>
    <path id="path6" fill="#ffffff" stroke="none" d="M 11.8 63.599998 L 14.6 63.599998 L 14.6 66.400002 L 11.8 66.400002 Z"/>
</svg>
