<?xml version="1.0" encoding="UTF-8"?>
<!-- Generated by Pixelmator Pro 3.6.14 -->
<svg width="70" height="70" viewBox="0 0 70 70" xmlns="http://www.w3.org/2000/svg">
    <path id="Circle" fill="#164a67" fill-rule="evenodd" stroke="none" d="M 70 35 C 70 15.670033 54.329967 0 35 0 C 15.670033 0 0 15.670033 0 35 C 0 54.329967 15.670033 70 35 70 C 54.329967 70 70 54.329967 70 35 Z"/>
    <path id="Path" fill="#ffffff" stroke="none" d="M 55.549999 55.489998 C 44.23 66.82 25.860001 66.82 14.540001 55.489998 C 3.21 44.169998 3.21 25.799999 14.540001 14.48 C 25.860001 3.150002 44.23 3.150002 55.549999 14.48 C 61 19.920002 64.050003 27.310001 64.040001 35.009998 C 64.040001 42.689999 60.98 50.059998 55.549999 55.489998 Z M 15.860001 15.799999 C 5.27 26.400002 5.27 43.57 15.870001 54.169998 C 26.469999 64.760002 43.639999 64.760002 54.240002 54.16 C 64.830002 43.559998 64.830002 26.389999 54.23 15.790001 C 49.139999 10.700001 42.23 7.839996 35.029999 7.849998 C 27.84 7.849998 20.940001 10.709999 15.860001 15.799999 Z"/>
    <path id="path1" fill="#ffffff" stroke="none" d="M 69.440002 34.98 L 35.040001 69.379997 L 0.65 34.98 L 35.040001 0.580002 L 69.440002 34.98 Z M 35.040001 66.729996 L 66.790001 34.98 L 35.040001 3.230003 L 3.29 34.98 L 35.040001 66.729996 Z"/>
    <path id="path2" fill="#f47755" stroke="none" d="M 48.43 38.200001 C 47.139999 39.75 44.84 39.950001 43.290001 38.66 C 41.740002 37.369999 41.540001 35.07 42.830002 33.52 C 44.119999 31.970001 46.419998 31.77 47.970001 33.059998 C 48.209999 33.259998 48.419998 33.489998 48.599998 33.739998 C 48.91 34.169998 49.509998 34.27 49.939999 33.959999 C 50.369999 33.649998 50.470001 33.049999 50.16 32.619999 C 48.380001 30.079998 44.880001 29.470001 42.34 31.25 C 39.799999 33.029999 39.189999 36.529999 40.970001 39.07 C 42.75 41.610001 46.25 42.220001 48.790001 40.439999 C 49.189999 40.16 49.560001 39.82 49.880001 39.439999 C 50.220001 39.049999 50.189999 38.459999 49.799999 38.119999 C 49.790001 38.119999 49.779999 38.099998 49.77 38.09 C 49.380001 37.75 48.790001 37.790001 48.450001 38.18 C 48.450001 38.18 48.439999 38.189999 48.43 38.200001 Z"/>
    <path id="path3" fill="#f47755" stroke="none" d="M 51.990002 35.099998 L 47.5 35.099998 C 46.970001 35.099998 46.540001 35.529999 46.540001 36.059998 C 46.540001 36.59 46.970001 37.02 47.5 37.02 L 51.990002 37.02 C 52.52 37.02 52.950001 36.59 52.950001 36.059998 C 52.950001 35.529999 52.52 35.099998 51.990002 35.099998 Z"/>
    <path id="path4" fill="#ffffff" stroke="none" d="M 22.67 41.259998 L 22.67 32.52 L 19.68 32.52 L 19.68 30.43 L 28.219999 30.43 L 28.219999 32.52 L 25.25 32.52 L 25.25 41.259998 L 22.67 41.259998 Z"/>
    <path id="path5" fill="#ffffff" stroke="none" d="M 29.370001 37.720001 L 31.919998 37.720001 C 32.07 38.860001 32.900002 39.439999 34.18 39.439999 C 35.32 39.439999 35.990002 39.009998 35.990002 38.279999 L 35.990002 38.220001 C 35.990002 37.489998 35.5 37.169998 33.459999 36.799999 C 30.849998 36.329998 29.74 35.349998 29.74 33.57 L 29.74 33.459999 C 29.74 31.48 31.509998 30.23 33.950001 30.23 C 36.389999 30.23 38.189999 31.470001 38.369999 33.739998 L 35.82 33.739998 C 35.709999 32.720001 35.029999 32.23 33.900002 32.23 C 32.77 32.23 32.279999 32.720001 32.279999 33.360001 L 32.279999 33.41 C 32.279999 34.040001 32.580002 34.389999 34.639999 34.720001 C 37.130001 35.130001 38.540001 36.059998 38.540001 37.939999 L 38.540001 38.059998 C 38.540001 40.169998 36.68 41.459999 34.099998 41.459999 C 31.23 41.459999 29.51 40.059998 29.360001 37.720001 Z"/>
</svg>
